PathFileType  4	(X/Y/Z) C:\simtk\uwmodels\fbknee\data\invivovalid3\exp\aclc01\Files_W_HJCs
DataRate	CameraRate	NumFrames	NumMarkers	Units	OrigDataRate	OrigDataStartFrame	OrigNumFrames
  200.0      200.0       5         52 mm      200.0         151      1204
Frame#	Time            R.Shoulder                       R.Clavicle                       R.Bicep                          R.Elbow                          R.Forearm                        R.Wrist                          L.Shoulder                       L.Clavicle                       L.Scapula                        L.Bicep                          L.Elbow                          L.Forearm                        L.Wrist                          R.ASIS                           R.PSIS                           S2                               L.PSIS                           L.ASIS                           R.TH1                            R.TH2                            R.TH3                            R.Knee                           R.SH1                            R.SH2                            R.SH3                            R.SH4                            R.Ankle                          R.Heel                           R.MT5                            L.TH1                            L.TH2                            L.TH3                            L.TH4                            L.Knee                           L.SH1                            L.SH2                            L.SH3                            L.Ankle                          L.Heel                           L.MT5                            R.Melb                           R.GTR                            R.Mkn                            R.Man                            R.MT0                            L.Melb                           L.GTR                            L.Mkn                            L.Man                            L.MT0                            R_HJC                            L_HJC                  
                     X1         Y1         Z1         X2         Y2         Z2         X3         Y3         Z3         X4         Y4         Z4         X5         Y5         Z5         X6         Y6         Z6         X7         Y7         Z7         X8         Y8         Z8         X9         Y9         Z9         X10         Y10         Z10         X11         Y11         Z11         X12         Y12         Z12         X13         Y13         Z13         X14         Y14         Z14         X15         Y15         Z15         X16         Y16         Z16         X17         Y17         Z17         X18         Y18         Z18         X19         Y19         Z19         X20         Y20         Z20         X21         Y21         Z21         X22         Y22         Z22         X23         Y23         Z23         X24         Y24         Z24         X25         Y25         Z25         X26         Y26         Z26         X27         Y27         Z27         X28         Y28         Z28         X29         Y29         Z29         X30         Y30         Z30         X31         Y31         Z31         X32         Y32         Z32         X33         Y33         Z33         X34         Y34         Z34         X35         Y35         Z35         X36         Y36         Z36         X37         Y37         Z37         X38         Y38         Z38         X39         Y39         Z39         X40         Y40         Z40         X41         Y41         Z41         X42         Y42         Z42         X43         Y43         Z43         X44         Y44         Z44         X45         Y45         Z45         X46         Y46         Z46         X47         Y47         Z47         X48         Y48         Z48         X49         Y49         Z49         X50         Y50         Z50         X51         Y51         Z51         X52         Y52         Z52         

	151	0.75000	534.821	1931.814	1606.956	615.689	2081.983	1601.284	586.011	1883.746	1398.978	469.209	1849.658	1308.033	550.966	1762.403	1249.780	503.837	1730.235	1135.087	570.420	2308.866	1611.204	625.014	2139.402	1602.714	442.360	2214.976	1576.826	613.761	2354.004	1454.384	518.332	2411.383	1316.403	583.299	2473.560	1251.674	549.063	2501.717	1134.706	657.690	1986.318	1151.752	426.243	2068.156	1226.943	418.256	2120.386	1221.422	432.197	2174.059	1229.141	656.131	2242.346	1141.147	594.733	1906.270	945.203	444.249	1935.199	958.802	441.163	1942.456	884.160	493.498	1913.335	736.613	518.737	1880.782	604.235	518.520	1887.510	529.768	409.860	1928.848	610.172	407.358	1924.517	533.920	481.852	1893.879	333.151	416.000	1943.641	299.427	601.226	1863.847	276.332	599.274	2312.025	908.001	602.323	2298.837	826.543	450.586	2306.710	908.497	446.188	2300.946	831.759	497.403	2312.704	727.193	539.623	2334.041	641.773	428.451	2319.969	642.292	423.410	2335.818	566.237	505.386	2357.652	338.250	421.579	2325.623	296.983	604.830	2384.169	278.569	540.175	1922.189	1275.140	536.553	1892.316	1094.612	509.972	2077.567	694.142	506.683	1984.807	337.282	619.007	1978.725	279.421	590.137	2319.081	1272.111	525.875	2324.351	1112.295	495.476	2146.540	694.180	511.272	2261.974	333.990	624.085	2261.553	279.429	559.569	2015.772	1101.829	552.489	2213.931	1081.217
	152	0.75500	534.991	1931.747	1606.743	615.714	2081.966	1601.289	586.011	1883.746	1398.978	469.209	1849.658	1308.033	550.808	1762.395	1249.961	503.725	1730.218	1135.008	570.420	2308.866	1611.204	625.143	2139.335	1602.413	442.516	2215.019	1576.714	613.761	2354.004	1454.384	518.332	2411.383	1316.403	583.299	2473.560	1251.674	549.031	2501.714	1135.049	657.690	1986.318	1151.752	426.243	2068.156	1226.943	418.406	2120.541	1221.364	432.195	2174.223	1228.990	656.217	2242.308	1141.171	594.709	1906.100	945.202	444.318	1934.982	958.898	441.102	1942.436	884.263	493.505	1913.419	736.564	518.757	1880.870	604.276	518.520	1887.510	529.768	409.860	1928.848	610.172	407.602	1924.522	533.687	481.852	1893.879	333.151	416.215	1942.736	299.716	601.226	1863.847	276.332	599.573	2312.101	907.927	602.753	2299.015	826.617	450.636	2306.577	908.292	446.255	2300.841	831.882	497.384	2312.731	727.165	539.651	2334.246	641.887	428.363	2320.009	642.267	423.410	2335.818	566.237	505.269	2357.651	338.275	421.612	2325.710	297.073	604.830	2384.169	278.569	540.897	1921.834	1274.485	536.404	1892.159	1094.575	509.972	2077.567	694.142	506.443	1984.804	337.120	619.007	1978.725	279.421	590.137	2319.081	1272.111	525.875	2324.351	1112.295	495.409	2146.392	694.141	511.272	2261.974	333.990	624.107	2261.482	279.316	559.603	2015.795	1101.823	552.609	2213.953	1081.173
	153	0.76000	534.849	1931.902	1607.016	615.689	2081.983	1601.284	586.011	1883.746	1398.978	469.209	1849.658	1308.033	550.966	1762.403	1249.780	503.837	1730.235	1135.087	570.420	2308.866	1611.204	624.992	2139.299	1602.568	442.473	2215.042	1576.722	613.761	2354.004	1454.384	518.366	2411.458	1316.281	583.299	2473.560	1251.674	549.031	2501.714	1135.049	657.690	1986.318	1151.752	426.243	2068.156	1226.943	418.406	2120.541	1221.364	432.195	2174.223	1228.990	656.245	2242.261	1141.048	594.733	1906.270	945.203	444.383	1935.315	958.796	441.089	1942.649	884.187	493.505	1913.419	736.564	519.033	1880.906	604.333	518.750	1887.552	529.745	409.844	1928.779	610.214	407.642	1924.448	533.900	482.357	1893.553	334.046	416.000	1943.641	299.427	601.492	1863.865	276.053	599.666	2312.083	907.833	602.641	2298.909	826.493	450.689	2306.604	908.320	446.031	2301.171	831.436	497.384	2312.731	727.165	539.824	2334.123	641.616	428.363	2320.009	642.267	423.523	2335.884	566.300	505.394	2357.618	338.283	421.689	2325.678	297.050	604.603	2384.248	278.519	540.897	1921.834	1274.485	536.404	1892.159	1094.575	509.972	2077.567	694.142	506.683	1984.807	337.282	618.097	1978.483	279.223	590.137	2319.081	1272.111	525.875	2324.351	1112.295	495.409	2146.392	694.141	511.272	2261.974	333.990	624.132	2261.474	279.316	559.586	2015.749	1101.828	552.591	2213.899	1081.104
	154	0.76500	534.991	1931.747	1606.743	615.687	2081.916	1601.155	585.976	1883.977	1398.975	469.209	1849.658	1308.033	550.959	1762.552	1249.707	503.728	1730.365	1134.925	570.420	2308.866	1611.204	625.125	2139.352	1602.406	442.369	2215.021	1576.791	613.761	2354.004	1454.384	518.504	2411.396	1316.252	583.299	2473.560	1251.674	549.031	2501.714	1135.049	657.690	1986.318	1151.752	426.243	2068.156	1226.943	418.600	2119.344	1220.081	432.197	2174.059	1229.141	656.384	2242.291	1140.985	594.658	1906.048	945.084	444.273	1935.511	959.009	441.163	1942.456	884.160	493.651	1913.437	736.368	518.710	1880.865	604.260	518.624	1887.646	529.661	409.948	1928.995	610.105	407.558	1924.569	533.844	481.852	1893.879	333.151	416.000	1943.641	299.427	601.492	1863.865	276.053	599.666	2312.083	907.833	602.641	2298.909	826.493	450.689	2306.604	908.320	446.291	2300.692	831.734	497.385	2312.854	727.364	539.824	2334.123	641.616	428.363	2320.009	642.267	423.556	2335.781	566.414	505.269	2357.651	338.275	421.579	2325.623	296.983	604.830	2384.169	278.569	541.026	1921.907	1274.385	536.596	1892.408	1094.474	509.972	2077.567	694.142	506.443	1984.804	337.120	619.007	1978.725	279.421	590.137	2319.081	1272.111	525.875	2324.351	1112.295	495.476	2146.540	694.180	511.327	2262.006	333.881	624.107	2261.482	279.316	559.906	2015.561	1101.616	552.724	2213.711	1080.951
	155	0.77000	534.991	1931.747	1606.743	615.743	2082.052	1601.200	586.011	1883.746	1398.978	469.209	1849.658	1308.033	550.959	1762.552	1249.707	503.812	1730.414	1134.964	570.420	2308.866	1611.204	625.164	2139.324	1602.413	442.444	2215.178	1576.721	613.761	2354.004	1454.384	518.325	2411.426	1316.353	583.268	2473.583	1251.641	548.947	2501.641	1134.704	657.690	1986.318	1151.752	426.243	2068.156	1226.943	418.344	2120.510	1221.335	432.197	2174.059	1229.141	656.158	2242.300	1141.025	594.758	1905.997	945.138	444.346	1935.140	958.736	441.238	1942.456	883.974	493.659	1913.297	736.385	518.737	1880.782	604.235	518.624	1887.646	529.661	409.884	1929.045	609.993	407.516	1924.548	533.834	481.852	1893.879	333.151	416.215	1942.736	299.716	601.492	1863.865	276.053	599.586	2312.002	907.748	602.641	2298.909	826.493	450.838	2306.041	908.247	446.157	2301.087	831.915	497.385	2312.854	727.364	539.894	2334.289	641.727	428.363	2320.009	642.267	423.530	2335.860	566.437	505.471	2357.708	338.246	421.689	2325.678	297.050	604.830	2384.169	278.569	540.897	1921.834	1274.485	536.553	1892.316	1094.612	509.972	2077.567	694.142	506.683	1984.807	337.282	619.007	1978.725	279.421	590.052	2318.873	1272.215	525.875	2324.351	1112.295	495.476	2146.540	694.180	511.717	2260.401	334.055	624.083	2261.400	278.978	559.566	2015.745	1101.822	552.509	2213.896	1081.132
